<svg width="17" height="17" viewBox="0 0 17 17" fill="none" xmlns="http://www.w3.org/2000/svg">
<circle cx="8.23828" cy="8.53638" r="8" fill="#453C3C"/>
<path d="M12.095 6.23832C11.9244 6.23835 11.7607 6.30617 11.6401 6.42684L8.6893 9.37762C8.56697 9.49504 8.40397 9.56061 8.2344 9.56061C8.06483 9.56061 7.90183 9.49504 7.77949 9.37762L4.82871 6.42684C4.70736 6.30964 4.54483 6.24478 4.37612 6.24625C4.20742 6.24771 4.04604 6.31538 3.92674 6.43468C3.80744 6.55398 3.73977 6.71536 3.73831 6.88406C3.73684 7.05277 3.80169 7.2153 3.9189 7.33665L6.86968 10.2874C7.23748 10.6384 7.72633 10.8342 8.23472 10.8342C8.74311 10.8342 9.23196 10.6384 9.59976 10.2874L12.5499 7.33665C12.6399 7.24667 12.7011 7.13203 12.7259 7.00724C12.7507 6.88244 12.738 6.75309 12.6893 6.63554C12.6406 6.51798 12.5582 6.4175 12.4524 6.3468C12.3466 6.27609 12.2222 6.23834 12.095 6.23832Z" fill="white"/>
</svg>
