<svg width="43" height="43" viewBox="0 0 43 43" fill="none" xmlns="http://www.w3.org/2000/svg">
<circle cx="21" cy="21" r="21" transform="matrix(-1 0 0 1 42.0195 0.298828)" fill="#453C3C" fill-opacity="0.3"/>
<path d="M16.935 28.1552C16.935 27.8518 17.0556 27.5609 17.2701 27.3465L22.5159 22.1006C22.7247 21.8832 22.8413 21.5934 22.8413 21.2919C22.8413 20.9905 22.7247 20.7007 22.5159 20.4832L17.2701 15.2374C17.0617 15.0216 16.9465 14.7327 16.9491 14.4328C16.9517 14.1328 17.072 13.8459 17.284 13.6339C17.4961 13.4218 17.783 13.3015 18.083 13.2989C18.3829 13.2963 18.6718 13.4116 18.8876 13.6199L24.1334 18.8658C24.7573 19.5196 25.1055 20.3887 25.1055 21.2925C25.1055 22.1963 24.7573 23.0654 24.1334 23.7192L18.8876 28.9639C18.7276 29.1238 18.5238 29.2327 18.3019 29.2769C18.0801 29.321 17.8501 29.2983 17.6411 29.2118C17.4321 29.1252 17.2535 28.9786 17.1278 28.7906C17.0021 28.6025 16.935 28.3814 16.935 28.1552Z" fill="white"/>
</svg>
