<svg width="42" height="43" viewBox="0 0 42 43" fill="none" xmlns="http://www.w3.org/2000/svg">
<circle cx="21" cy="21" r="21" transform="matrix(-1 0 0 1 41.9902 0.298828)" fill="#453C3C" fill-opacity="0.3"/>
<path d="M16.9057 28.1552C16.9057 27.8518 17.0263 27.5609 17.2408 27.3465L22.4866 22.1006C22.6954 21.8832 22.812 21.5934 22.812 21.2919C22.812 20.9905 22.6954 20.7007 22.4866 20.4832L17.2408 15.2374C17.0325 15.0216 16.9172 14.7327 16.9198 14.4328C16.9224 14.1328 17.0427 13.8459 17.2548 13.6339C17.4668 13.4218 17.7537 13.3015 18.0537 13.2989C18.3536 13.2963 18.6425 13.4116 18.8583 13.6199L24.1041 18.8658C24.728 19.5196 25.0762 20.3887 25.0762 21.2925C25.0762 22.1963 24.728 23.0654 24.1041 23.7192L18.8583 28.9639C18.6983 29.1238 18.4945 29.2327 18.2726 29.2769C18.0508 29.321 17.8208 29.2983 17.6118 29.2118C17.4028 29.1252 17.2242 28.9786 17.0985 28.7906C16.9728 28.6025 16.9057 28.3814 16.9057 28.1552Z" fill="white"/>
</svg>
