<svg width="42" height="43" viewBox="0 0 42 43" fill="none" xmlns="http://www.w3.org/2000/svg">
<circle cx="21" cy="21" r="21" transform="matrix(1 0 0 -1 -0.00976562 42.2988)" fill="#453C3C" fill-opacity="0.3"/>
<path d="M25.0748 14.4425C25.0747 14.7458 24.9542 15.0367 24.7396 15.2512L19.4938 20.497C19.2851 20.7145 19.1685 21.0043 19.1685 21.3057C19.1685 21.6072 19.2851 21.897 19.4938 22.1145L24.7397 27.3603C24.948 27.576 25.0633 27.865 25.0607 28.1649C25.0581 28.4648 24.9378 28.7517 24.7257 28.9638C24.5136 29.1759 24.2267 29.2962 23.9268 29.2988C23.6269 29.3014 23.3379 29.1861 23.1222 28.9777L17.8764 23.7319C17.2524 23.078 16.9043 22.209 16.9043 21.3052C16.9043 20.4014 17.2524 19.5323 17.8764 18.8784L23.1222 13.6337C23.2822 13.4738 23.486 13.3649 23.7078 13.3208C23.9297 13.2767 24.1597 13.2993 24.3686 13.3859C24.5776 13.4724 24.7563 13.619 24.882 13.8071C25.0076 13.9952 25.0748 14.2163 25.0748 14.4425Z" fill="white"/>
</svg>
