<svg width="43" height="43" viewBox="0 0 43 43" fill="none" xmlns="http://www.w3.org/2000/svg">
<circle cx="21" cy="21" r="21" transform="matrix(1 0 0 -1 0.0195312 42.2988)" fill="#453C3C" fill-opacity="0.3"/>
<path d="M25.1041 14.4425C25.104 14.7458 24.9835 15.0367 24.7689 15.2512L19.5231 20.497C19.3144 20.7145 19.1978 21.0043 19.1978 21.3057C19.1978 21.6072 19.3144 21.897 19.5231 22.1145L24.7689 27.3603C24.9773 27.576 25.0926 27.865 25.09 28.1649C25.0874 28.4648 24.9671 28.7517 24.755 28.9638C24.5429 29.1759 24.256 29.2962 23.9561 29.2988C23.6562 29.3014 23.3672 29.1861 23.1515 28.9777L17.9057 23.7319C17.2817 23.078 16.9336 22.209 16.9336 21.3052C16.9336 20.4014 17.2817 19.5323 17.9057 18.8784L23.1515 13.6337C23.3115 13.4738 23.5153 13.3649 23.7371 13.3208C23.959 13.2767 24.1889 13.2993 24.3979 13.3859C24.6069 13.4724 24.7856 13.619 24.9112 13.8071C25.0369 13.9952 25.1041 14.2163 25.1041 14.4425Z" fill="white"/>
</svg>
